<svg width="17" height="17" viewBox="0 0 17 17" fill="none" xmlns="http://www.w3.org/2000/svg">
<g clip-path="url(#clip0_1586_1764)">
<path d="M8.21429 0C3.6777 0 0 3.6777 0 8.21429C0 12.0665 2.65223 15.2989 6.23004 16.1867V10.7246H4.53626V8.21429H6.23004V7.13263C6.23004 4.33681 7.49537 3.04093 10.2403 3.04093C10.7607 3.04093 11.6587 3.14311 12.026 3.24497V5.52033C11.8322 5.49996 11.4954 5.48977 11.0771 5.48977C9.73032 5.48977 9.20986 6.00004 9.20986 7.32649V8.21429H11.893L11.432 10.7246H9.20986V16.3684C13.2772 15.8772 16.4289 12.4141 16.4289 8.21429C16.4286 3.6777 12.7509 0 8.21429 0Z" fill="white"/>
</g>
<defs>
<clipPath id="clip0_1586_1764">
<rect width="16.4286" height="16.4286" fill="white"/>
</clipPath>
</defs>
</svg>
