<svg width="17" height="17" viewBox="0 0 17 17" fill="none" xmlns="http://www.w3.org/2000/svg">
<g clip-path="url(#clip0_1586_1766)">
<path d="M15.2125 0H1.21289C0.542271 0 0 0.529436 0 1.18401V15.2414C0 15.8959 0.542271 16.4286 1.21289 16.4286H15.2125C15.8831 16.4286 16.4286 15.8959 16.4286 15.2446V1.18401C16.4286 0.529436 15.8831 0 15.2125 0ZM4.87402 13.9996H2.43541V6.15751H4.87402V13.9996ZM3.65472 5.08901C2.87179 5.08901 2.23968 4.45689 2.23968 3.67718C2.23968 2.89746 2.87179 2.26535 3.65472 2.26535C4.43443 2.26535 5.06655 2.89746 5.06655 3.67718C5.06655 4.45368 4.43443 5.08901 3.65472 5.08901ZM13.9996 13.9996H11.5642V10.1876C11.5642 9.27958 11.5481 8.1084 10.2967 8.1084C9.0293 8.1084 8.83677 9.09989 8.83677 10.1235V13.9996H6.40458V6.15751H8.74051V7.22921H8.7726C9.09668 6.61314 9.89244 5.96177 11.0765 5.96177C13.5439 5.96177 13.9996 7.58538 13.9996 9.69671V13.9996Z" fill="white"/>
</g>
<defs>
<clipPath id="clip0_1586_1766">
<rect width="16.4286" height="16.4286" fill="white"/>
</clipPath>
</defs>
</svg>
