<svg width="17" height="17" viewBox="0 0 17 17" fill="none" xmlns="http://www.w3.org/2000/svg">
<path d="M10.338 3.76692C10.9796 3.12535 12.0198 3.12535 12.6614 3.76692C13.303 4.4085 13.303 5.4487 12.6614 6.09027L10.1971 8.55456C9.55552 9.19614 8.51532 9.19614 7.87375 8.55456C7.55296 8.23377 7.03286 8.23377 6.71207 8.55456C6.39128 8.87535 6.39128 9.39545 6.71207 9.71623C7.99522 10.9994 10.0756 10.9994 11.3588 9.71623L13.8231 7.25195C15.1062 5.9688 15.1062 3.8884 13.8231 2.60525C12.5399 1.3221 10.4595 1.3221 9.17636 2.60525L7.94421 3.83739C7.62343 4.15818 7.62343 4.67828 7.94421 4.99907C8.265 5.31985 8.7851 5.31985 9.10589 4.99907L10.338 3.76692Z" fill="white"/>
<path d="M6.2309 7.87406C6.87248 7.23249 7.91268 7.23249 8.55425 7.87406C8.87504 8.19485 9.39514 8.19485 9.71593 7.87406C10.0367 7.55328 10.0367 7.03318 9.71593 6.71239C8.43278 5.42924 6.35238 5.42924 5.06923 6.71239L2.60494 9.17668C1.32179 10.4598 1.32179 12.5402 2.60494 13.8234C3.88809 15.1065 5.96849 15.1065 7.25164 13.8234L8.48379 12.5912C8.80457 12.2704 8.80457 11.7503 8.48379 11.4296C8.163 11.1088 7.6429 11.1088 7.32211 11.4296L6.08997 12.6617C5.44839 13.3033 4.40819 13.3033 3.76662 12.6617C3.12504 12.0201 3.12504 10.9799 3.76662 10.3384L6.2309 7.87406Z" fill="white"/>
</svg>
